<svg width="68" height="74" viewBox="0 0 68 74" fill="none" xmlns="http://www.w3.org/2000/svg">
<path d="M18.3052 0.893311L7.59352 3.03631C7.5777 12.2995 7.31821 21.9074 0.712402 29.483C10.0302 35.7934 23.4158 38.0392 32.5928 36.1572V20.4998L10.6472 10.7606L11.8181 8.16054L34.0168 18.0326L56.2154 8.16054L57.3863 10.7606L35.4408 20.4998V36.1572C44.6177 38.0392 58.0034 35.7934 67.3227 29.483C60.709 21.9074 60.4558 12.2995 60.44 3.03631L49.7283 0.893311C47.6872 3.0885 46.4689 5.34538 44.5228 7.30334C42.3867 9.42578 39.3172 10.884 34.0168 10.884C28.7163 10.884 25.6468 9.42578 23.5108 7.30334C21.5646 5.34538 20.3463 3.0885 18.3052 0.893311ZM2.03673 33.6425C5.53029 41.2498 8.71216 50.0432 9.76117 58.9315L20.0457 62.5374C20.7102 54.2027 24.5076 46.0893 30.1245 39.431C21.4064 40.4274 10.7105 38.5137 2.03673 33.6425ZM65.9936 33.6425C57.323 38.5137 46.6271 40.4274 37.909 39.431C43.526 46.0893 47.3233 54.2027 47.9878 62.5374L58.304 58.9157C59.3483 49.9325 62.5127 41.2339 65.9936 33.6425ZM34.0168 39.3519C27.6087 46.1684 23.3051 54.8353 22.8304 63.5022L32.5928 66.9183V49.9483H35.4408V66.9183L45.2031 63.5022C44.7126 54.8353 40.4248 46.1684 34.0168 39.3519ZM58.0192 62.0313L40.5039 68.152V71.1253L57.9401 64.1506C57.9559 63.4389 57.9875 62.743 58.0192 62.0313ZM10.0302 62.0472C10.0776 62.7589 10.0934 63.4547 10.1093 64.1664L27.5296 71.1253V68.1678L10.0302 62.0472ZM37.6559 69.1483L34.0168 70.4294L30.3776 69.1641V72.264L34.0168 73.719L37.6559 72.264V69.1483Z" fill="#0E0C07" fill-opacity="0.19"/>
</svg>
