<svg width="55" height="73" viewBox="0 0 55 73" fill="none" xmlns="http://www.w3.org/2000/svg">
<path d="M12.6845 0.374634C9.44088 0.374634 6.9726 2.44488 5.3429 4.58789C3.39676 7.1674 2.55818 9.48437 0.0266113 10.8065C3.27018 10.8065 5.46948 8.50381 7.36816 6.59962C9.26683 4.70176 10.8649 3.22143 12.6845 3.22143C13.4756 3.22143 14.4407 3.6611 15.1527 4.38545C15.8806 5.11138 16.3236 6.06822 16.3236 6.859C16.3236 7.01715 16.1654 7.52641 15.754 8.15587C15.3584 8.78849 14.7414 9.53182 14.1085 10.3005C13.4756 11.0754 12.8269 11.8662 12.2731 12.7044C11.7351 13.5426 11.2604 14.4441 11.2604 15.5512V25.3252L11.4028 25.0405L12.6845 22.4942L14.1085 25.341V15.5512C14.1085 15.393 14.2667 14.887 14.6781 14.2543C15.0736 13.6217 15.6907 12.8784 16.3236 12.1034C16.9565 11.3285 17.6052 10.5377 18.159 9.70579C18.6969 8.86757 19.1716 7.96608 19.1716 6.859C19.1716 5.11929 18.3488 3.54564 17.178 2.37371C15.9913 1.2002 14.4249 0.374634 12.6845 0.374634ZM43.0633 0.374634C39.8197 0.374634 37.3514 2.44488 35.7217 4.58789C33.7756 7.1674 32.937 9.48437 30.4054 10.8065C33.649 10.8065 35.8483 8.49748 37.747 6.59962C39.6456 4.70176 41.2437 3.22143 43.0633 3.22143C43.8544 3.22143 44.8195 3.6611 45.5315 4.38545C46.2594 5.11138 46.7024 6.06822 46.7024 6.859C46.7024 7.01715 46.5442 7.52641 46.1328 8.15903C45.7372 8.78849 45.1202 9.53182 44.4873 10.3005C43.8544 11.0754 43.2057 11.8662 42.6519 12.7044C42.1139 13.5426 41.6393 14.4441 41.6393 15.5512V25.3252L41.7817 25.0405L43.0633 22.4942L44.4873 25.341V15.5512C44.4873 15.393 44.6455 14.887 45.0569 14.2543C45.4524 13.6217 46.0695 12.8784 46.7024 12.1034C47.3353 11.3285 47.984 10.5377 48.5378 9.70579C49.0757 8.86757 49.5504 7.96608 49.5504 6.859C49.5504 5.11929 48.7276 3.54564 47.5568 2.37371C46.3701 1.2002 44.8037 0.374634 43.0633 0.374634ZM12.6845 28.8521L1.48226 51.2468C1.56138 52.1641 2.08351 54.0145 2.96956 56.118C3.9189 58.4271 5.24797 61.0841 6.64033 63.5671C8.04852 66.0501 9.53581 68.3908 10.77 70.0515C11.4028 70.8897 11.9724 71.5539 12.3996 71.9493C12.5262 72.0759 12.6053 72.1075 12.7003 72.1549C12.7952 72.1075 12.8585 72.0759 12.9851 71.9651C13.3965 71.5856 13.9661 70.953 14.5673 70.1622C15.8014 68.5648 17.2571 66.319 18.6495 63.8834C20.026 61.4478 21.3551 58.8383 22.3202 56.4976C23.2063 54.3308 23.7601 52.4014 23.8866 51.231L12.6845 28.8521ZM43.0633 28.8521L31.8611 51.2468C31.9402 52.1641 32.4623 54.0145 33.3484 56.118C34.2977 58.4271 35.6268 61.0841 37.0191 63.5671C38.4273 66.0501 39.9146 68.3908 41.1488 70.0515C41.7817 70.8897 42.3513 71.5539 42.7785 71.9493C42.905 72.0759 42.9842 72.1075 43.0791 72.1549C43.174 72.1075 43.2373 72.0759 43.3639 71.9651C43.7753 71.5856 44.3449 70.953 44.9461 70.1622C46.1803 68.5648 47.6359 66.319 49.0283 63.8834C50.4048 61.4478 51.7339 58.8383 52.699 56.4976C53.5851 54.3308 54.1389 52.4014 54.2654 51.231L43.0633 28.8521ZM12.6845 40.3816C14.1559 40.3816 15.1527 41.4728 15.754 42.6432C16.3394 43.8293 16.64 45.2686 16.64 46.8659C16.64 48.4633 16.3394 49.9025 15.754 51.0887C15.6907 51.2152 15.6116 51.3575 15.5325 51.4841C17.6843 52.5437 19.1716 54.7579 19.1716 57.3042C19.1716 60.8627 16.2445 63.7885 12.6845 63.7885C9.12443 63.7885 6.19731 60.8627 6.19731 57.3042C6.19731 54.7579 7.68461 52.5437 9.83644 51.4841C9.75733 51.3575 9.67821 51.2152 9.61492 51.0887C9.0295 49.9025 8.72888 48.4633 8.72888 46.8659C8.72888 45.2686 9.0295 43.8293 9.61492 42.6432C10.2162 41.4728 11.213 40.3816 12.6845 40.3816ZM43.0633 40.3816C44.5347 40.3816 45.5315 41.4728 46.1328 42.6432C46.7182 43.8293 47.0188 45.2686 47.0188 46.8659C47.0188 48.4633 46.7182 49.9025 46.1328 51.0887C46.0695 51.2152 45.9904 51.3575 45.9113 51.4841C48.0631 52.5437 49.5504 54.7579 49.5504 57.3042C49.5504 60.8627 46.6233 63.7885 43.0633 63.7885C39.5032 63.7885 36.5761 60.8627 36.5761 57.3042C36.5761 54.7579 38.0634 52.5437 40.2153 51.4841C40.1361 51.3575 40.057 51.2152 39.9937 51.0887C39.4083 49.9025 39.1077 48.4633 39.1077 46.8659C39.1077 45.2686 39.4083 43.8293 39.9937 42.6432C40.595 41.4728 41.5918 40.3816 43.0633 40.3816ZM12.6845 43.2284C12.6686 43.2284 12.6686 43.2284 12.6845 43.2442C12.7003 43.2284 12.7003 43.2284 12.6845 43.2284ZM12.6845 43.2442C12.637 43.26 12.4313 43.3865 12.1623 43.9242C11.8459 44.5885 11.5769 45.6639 11.5769 46.8659C11.5769 48.0679 11.8459 49.1434 12.1623 49.8076C12.4313 50.3453 12.637 50.4719 12.6845 50.4877C12.7319 50.4719 12.9376 50.3453 13.2066 49.8076C13.523 49.1434 13.792 48.0679 13.792 46.8659C13.792 45.6639 13.523 44.5885 13.2066 43.9242C12.9376 43.3865 12.7319 43.26 12.6845 43.2442ZM12.6845 50.4877C12.6686 50.5035 12.6686 50.5035 12.6845 50.5035C12.7003 50.5035 12.7003 50.5035 12.6845 50.4877ZM43.0633 43.2284C43.0474 43.2284 43.0474 43.2284 43.0633 43.2442C43.0791 43.2284 43.0791 43.2284 43.0633 43.2284ZM43.0633 43.2442C43.0158 43.26 42.8101 43.3865 42.5411 43.9242C42.2247 44.5885 41.9557 45.6639 41.9557 46.8659C41.9557 48.0679 42.2247 49.1434 42.5411 49.8076C42.8101 50.3453 43.0158 50.4719 43.0633 50.4877C43.1107 50.4719 43.3164 50.3453 43.5854 49.8076C43.9018 49.1434 44.1708 48.0679 44.1708 46.8659C44.1708 45.6639 43.9018 44.5885 43.5854 43.9242C43.3164 43.3865 43.1107 43.26 43.0633 43.2442ZM43.0633 50.4877C43.0474 50.5035 43.0474 50.5035 43.0633 50.5035C43.0791 50.5035 43.0791 50.5035 43.0633 50.4877ZM12.6845 53.6666C10.6592 53.6666 9.04532 55.2798 9.04532 57.3042C9.04532 59.3286 10.6592 60.9417 12.6845 60.9417C14.7097 60.9417 16.3236 59.3286 16.3236 57.3042C16.3236 55.2798 14.7097 53.6666 12.6845 53.6666ZM43.0633 53.6666C41.038 53.6666 39.4241 55.2798 39.4241 57.3042C39.4241 59.3286 41.038 60.9417 43.0633 60.9417C45.0885 60.9417 46.7024 59.3286 46.7024 57.3042C46.7024 55.2798 45.0885 53.6666 43.0633 53.6666Z" fill="#0E0C07" fill-opacity="0.19"/>
</svg>
