<svg width="76" height="59" viewBox="0 0 76 59" fill="none" xmlns="http://www.w3.org/2000/svg">
<path d="M19.6857 0.935855C14.7567 0.964639 10.3189 2.86266 6.76582 8.7892C9.06386 9.96635 10.8701 12.0304 12.2394 14.5963C15.9089 11.5202 19.7167 10.5757 23.3694 10.4792C23.5458 10.4745 23.7226 10.4704 23.8984 10.4694C25.1293 10.4631 26.3413 10.5461 27.5228 10.6719L27.2063 13.6128C22.3796 13.0985 18.1122 13.1117 13.5153 17.4132C14.0362 18.7813 14.471 20.251 14.8403 21.7973C17.1497 20.3728 19.5074 19.8716 21.8122 19.8599C22.0014 19.8588 22.1922 19.8593 22.3808 19.8646C24.1901 19.9168 25.9606 20.2537 27.6418 20.6703L26.9298 23.5368C22.8055 22.5152 19.2813 22.0201 15.4784 24.9452C15.6565 25.993 15.8114 27.0639 15.9382 28.1578C16.0002 28.6952 16.051 29.2374 16.1011 29.7837C17.5433 29.1827 19.0045 28.9081 20.4325 28.8842C20.7418 28.8795 21.0511 28.8871 21.3571 28.9042C23.8033 29.0413 26.1235 29.8082 28.3585 30.6736L27.2905 33.4313C25.1577 32.6058 23.1153 31.9626 21.1939 31.855C19.5309 31.7617 17.9656 32.025 16.3285 32.9472C16.4367 35.1113 16.4611 37.3155 16.4076 39.5202C18.9686 39.634 21.7268 39.5319 24.3631 39.214L25.1542 39.12L25.6684 39.728C28.5807 43.1852 30.4681 48.4961 30.7415 55.8598C32.4642 55.6332 34.1745 55.2683 35.8939 54.6934C31.9092 38.5499 30.5115 22.2368 35.8395 5.89734C30.9024 3.31973 25.2896 1.03249 20.1654 0.940284C20.0056 0.937437 19.8449 0.934431 19.686 0.935538L19.6857 0.935855ZM54.4799 3.48595C51.9894 3.49164 49.6066 3.93068 47.6516 4.74138C44.9797 5.84942 43.1929 7.55812 42.5932 9.78257C46.3459 25.9792 44.7582 38.2429 42.6873 54.5949C43.5829 54.8542 44.7031 55.0829 45.9705 55.2819C46.6034 47.6335 50.1514 41.6508 54.7867 38.2258L55.4691 37.7216L56.2502 38.0577C57.5738 38.6255 59.3398 39.0316 61.3482 39.2787C61.273 38.4189 61.2126 37.5638 61.1649 36.7184C57.5628 33.9457 52.9734 34.0295 48.8384 35.2655L47.9929 32.4335C49.7813 31.899 51.7178 31.5452 53.6842 31.5042C56.1758 31.452 58.7156 31.9096 61.0562 33.15C61.0536 32.0481 61.08 30.9709 61.1453 29.9276C61.1907 29.1985 61.257 28.4874 61.338 27.7925C57.7579 24.5234 54.1895 24.7385 49.9757 25.435L49.4963 22.5186C50.6352 22.3304 51.8086 22.1808 53.0017 22.1283C53.2253 22.1185 53.4492 22.1112 53.6742 22.1085C56.4304 22.0772 59.2587 22.6257 61.9163 24.4809C62.3119 22.8772 62.8657 21.425 63.637 20.1762C59.4579 15.7289 55.2556 15.386 50.4798 15.5154L50.4007 12.5648C50.7403 12.5557 51.0804 12.5512 51.4244 12.55C51.7684 12.5487 52.1158 12.5504 52.4628 12.5599C56.8298 12.6792 61.4341 13.7186 65.5756 17.9321C67.2186 16.6182 69.3932 15.9932 71.9045 16.237C71.308 12.7311 69.6704 10.063 67.4198 8.04777C64.7807 5.68462 61.2607 4.24493 57.6693 3.71812C56.7712 3.58653 55.8695 3.50935 54.9795 3.49085C54.8124 3.48721 54.646 3.48547 54.4799 3.48595ZM8.05139 41.0925C4.21923 44.2161 1.2122 49.6044 0.941162 56.7002C6.32296 58.5899 14.07 59.2328 27.7848 56.5223C27.61 49.795 26.0353 45.1462 23.8588 42.2343C18.1998 42.8332 12.2959 42.6222 8.05154 41.0924L8.05139 41.0925ZM55.9634 41.0925C52.1328 44.2164 49.124 49.606 48.8531 56.7002C54.2343 58.5902 61.9834 59.232 75.6966 56.5223C75.5218 49.7944 73.9476 45.1462 71.7708 42.2343C66.113 42.8326 60.2066 42.6217 55.9634 41.0924V41.0925Z" fill="#0E0C07" fill-opacity="0.19"/>
</svg>
