<svg width="64" height="74" viewBox="0 0 64 74" fill="none" xmlns="http://www.w3.org/2000/svg">
<path d="M11.1264 0.699006C9.33076 0.819836 3.40642 13.8267 1.07216 21.603C-0.200904 25.8444 1.54414 33.4226 7.6737 38.4386C9.06812 38.2011 10.3549 37.9567 11.5397 37.707C7.98397 33.8765 5.36142 29.7221 3.98109 24.7289L3.81954 24.1439L4.13013 23.6222C8.26529 16.6752 10.0921 12.781 12.1758 5.87084L12.7848 3.85072L14.4306 5.17148C16.7445 7.02869 18.1837 8.03155 19.5093 8.62068C17.2264 4.98469 14.4713 2.07938 11.2089 0.703434C11.1817 0.698653 11.1539 0.697166 11.1264 0.699006ZM14.2578 8.63887C12.4028 14.3603 10.4382 18.522 6.89919 24.5143C8.32383 29.2555 10.9728 33.1521 14.7681 36.9532C17.7338 36.1851 19.9243 35.3829 21.6323 34.5844C24.3023 33.3359 25.8274 32.0966 27.4739 30.8359C26.4404 25.3147 24.4765 18.1614 21.4586 12.1143C19.1241 11.6764 17.1555 10.7901 14.2578 8.63887ZM28.5128 33.6286C27.0641 34.7392 25.3806 35.9746 22.8387 37.1629C20.0912 38.4476 16.36 39.6756 10.7679 40.7678C16.3609 45.3162 21.0374 50.6071 28.5906 53.7613C29.0321 51.292 30.2534 49.0907 31.8516 47.4696C33.3621 45.9374 35.2706 44.8785 37.271 44.8094C37.6195 43.9867 38.122 43.1398 38.9471 42.4482C39.9613 41.5982 41.4195 41.1318 43.2084 41.1583C43.4315 40.8468 43.6864 40.5593 43.9689 40.3004C42.8006 40.0469 41.4073 39.7994 39.674 39.417L28.5128 33.6286ZM47.543 41.5837C47.5367 41.5851 47.5298 41.5856 47.5233 41.587C45.741 42.1768 45.5433 42.6587 44.8419 44.1298C43.4995 43.9709 41.7965 43.8007 40.7771 44.6296C39.8251 45.628 39.6254 46.6375 39.2447 47.9058C37.0277 47.3877 35.1673 48.1971 33.8803 49.4679C32.6095 50.7569 31.6098 52.6335 31.3358 54.6317C32.2734 55.0473 33.2517 55.2981 34.2058 55.5374C36.2136 53.0863 39.3116 50.2372 42.2214 49.7092C44.2775 47.583 46.7575 46.8498 48.7375 46.5634C49.3022 46.0473 49.9272 45.6012 50.5988 45.2349C49.5495 43.3708 48.636 42.2897 47.543 41.5837ZM10.8336 44.57C10.5223 46.6156 9.56826 48.4563 10.7323 51.8934C15.8524 63.0678 17.2261 55.6464 25.5633 55.5235C19.4015 52.5283 15.1007 48.2899 10.8336 44.57ZM53.2001 47.2747C52.4296 47.4285 51.7219 47.834 51.1334 48.268C52.5886 50.2052 53.8212 52.5877 54.8169 55.1967C56.0694 54.8722 57.1507 54.4673 58.1558 54.0096C57.1317 49.7771 55.1574 48.0035 53.2003 47.2747H53.2001ZM48.4637 49.4741C47.2492 49.7127 45.9974 50.1636 44.8604 51.111C46.1842 52.5097 48.1793 55.0289 48.9826 57.9564C50.1901 57.7558 51.4999 57.3715 52.3062 56.6C51.2606 53.7757 49.9237 51.2655 48.4637 49.4741ZM42.4293 52.5847C40.1646 53.4319 38.433 54.954 36.9431 56.6869L40.0099 60.8502C42.1769 60.6145 44.2248 59.861 46.2423 58.7468C45.5002 56.359 43.2962 53.5416 42.3742 52.641L42.4293 52.5847ZM59.6515 56.4381C58.5948 56.9282 57.4407 57.3847 56.1331 57.7626C57.1336 59.3948 57.9714 61.1057 58.6017 62.9095C59.8205 62.424 60.9596 61.9017 61.9662 61.315C61.339 59.531 60.5928 57.8269 59.6514 56.4381H59.6515ZM17.6981 61.3971L25.5519 68.2573C27.3358 66.1197 29.8309 64.4711 32.2752 62.8892L28.7911 58.8848C24.9409 57.6179 20.4439 59.2572 17.6981 61.3971ZM53.6484 59.1454C52.562 59.945 51.4106 60.3675 50.1999 60.6284C51.0497 62.1008 51.8415 63.7128 52.4711 65.3343C53.7283 64.996 54.9158 64.6334 56.0064 64.1047C55.4292 62.3813 54.633 60.7355 53.6484 59.1454ZM47.3385 61.3762C45.4779 62.3746 43.5109 63.1415 41.4178 63.5184L43.5247 67.8593C45.8447 67.515 47.9706 67.2766 49.8007 66.3179C49.137 64.6247 48.2539 62.885 47.3385 61.3762ZM62.847 64.0895C61.7985 64.6595 60.6877 65.1496 59.5487 65.5973C59.9965 66.7308 60.3841 67.8303 60.6895 68.8802C62.3345 68.6532 63.8955 67.9452 63.5658 66.6867C63.3407 65.8491 63.1033 64.9739 62.847 64.0895ZM34.1743 65.0583C31.6329 66.7291 29.2552 68.3756 27.7302 70.1598L27.9504 70.3523C30.5845 72.6531 33.687 73.5905 35.0626 71.7962C36.4109 70.0375 36.7296 67.9822 34.1743 65.0583ZM56.96 66.7913C55.8262 67.3185 54.6816 67.6823 53.5637 67.9901C54.0465 69.0957 54.4881 70.1804 54.8681 71.2291C56.3238 71.1568 57.6737 70.5925 57.9266 69.5776C57.6699 68.7094 57.3431 67.7732 56.96 66.7913ZM50.8784 68.9564C48.8652 69.968 46.7858 70.2955 44.8368 70.5623L45.7861 72.5182C47.3744 74.2113 50.9531 74.3111 52.4647 72.9838C52.0448 71.7333 51.4996 70.3717 50.8784 68.9564Z" fill="#0E0C07" fill-opacity="0.19"/>
</svg>
