<svg width="41" height="52" viewBox="0 0 41 52" fill="none" xmlns="http://www.w3.org/2000/svg">
<path d="M20.3927 0.342712C13.0331 2.7557 5.8201 7.84492 0.75293 15.1073C3.11782 21.5033 4.39636 25.6093 4.39636 29.7361C4.39636 33.7997 3.11359 37.9453 0.819184 44.1734C6.35559 48.2634 11.9633 50.7376 17.5568 51.4044C16.9942 44.6812 16.4622 37.9589 17.7342 31.2358C14.3219 30.8706 10.899 29.7564 7.48648 27.8151V19.8744C16.4692 24.5795 25.1812 24.5007 34.4406 19.8744V27.8152C31.0934 29.416 27.7381 30.568 24.3911 31.0756C25.3581 37.8079 25.2511 44.5396 24.6172 51.272C29.7823 50.4552 34.9606 48.0624 40.0986 44.1107C36.3164 31.5331 36.3093 27.8608 40.1647 15.1069C35.5094 7.81374 27.3542 2.80804 20.3926 0.342712H20.3927ZM12.0274 23.9493C10.7847 23.9348 9.83978 24.3027 9.66118 24.9688C9.40173 25.9376 10.8613 27.1691 12.9218 27.7214C14.9823 28.2734 16.8623 27.9352 17.122 26.9662C17.3814 25.9975 15.9221 24.7659 13.8614 24.2136C13.2174 24.041 12.5924 23.9558 12.0274 23.9493ZM29.9205 23.9493C29.3555 23.956 28.7305 24.0411 28.0865 24.2137C26.0258 24.766 24.5664 25.9974 24.8262 26.9663C25.0856 27.9351 26.9656 28.2734 29.026 27.7213C31.0866 27.1692 32.5462 25.9377 32.2866 24.9687C32.108 24.3028 31.1631 23.9347 29.9204 23.9493H29.9205Z" fill="#0E0C07" fill-opacity="0.19"/>
</svg>
