<svg width="54" height="72" viewBox="0 0 54 72" fill="none" xmlns="http://www.w3.org/2000/svg">
<path d="M0.979609 0.641235V7.70555L27.3633 12.2762L53.747 7.70555V0.641235L27.3633 5.21223L0.979609 0.641235ZM0.915527 11.6242V41.1536C8.74408 43.6847 15.1852 42.5327 23.0145 41.1536C23.1949 35.7378 25.0596 31.5639 27.3008 31.558C29.542 31.5644 31.4067 35.7378 31.5871 41.1536C39.4147 43.6846 45.8545 42.5327 53.6829 41.1536V11.6242L27.3008 16.1811L0.915527 11.6242ZM0.915527 45.1926V56.1347C8.18018 57.2943 14.4827 58.3324 21.7453 56.1347V45.1926C14.4805 46.3519 8.17812 47.3902 0.915527 45.1926ZM32.8533 45.1926V56.1347C40.118 57.2943 46.4205 58.3324 53.6831 56.1347V45.1926C46.4182 46.3519 40.1159 47.3902 32.8533 45.1926ZM1.45554 60.1462V70.2997C8.34331 71.3755 14.3194 72.3388 21.2054 70.2997V60.1462C14.3173 61.2216 8.34157 62.1852 1.45554 60.1462ZM33.3935 60.1462V70.2997C40.2814 71.3755 46.257 72.3388 53.1432 70.2997V60.1462C46.2551 61.2216 40.2797 62.1852 33.3935 60.1462Z" fill="#0E0C07" fill-opacity="0.19"/>
</svg>
