<svg width="71" height="76" viewBox="0 0 71 76" fill="none" xmlns="http://www.w3.org/2000/svg">
<path d="M0.417574 0.02091C0.00144714 1.64943 0.42501 3.45604 1.69032 4.72128C3.27809 6.30821 5.71868 6.57106 7.59045 5.51206C8.52618 6.35755 9.43945 7.1526 10.3367 7.90336C10.2833 8.19089 10.2541 8.48648 10.2541 8.78856C10.2541 11.481 12.4705 13.6914 15.1638 13.6914C15.9418 13.6914 16.6789 13.5063 17.3346 13.1789C18.2452 13.7973 19.164 14.3991 20.1007 14.9946C20.0257 15.3333 19.9848 15.6841 19.9848 16.0439C19.9848 18.7364 22.2012 20.9467 24.8945 20.9467C26.0934 20.9467 27.1967 20.5083 28.0533 19.7851L30.2483 21.0701C30.2067 21.3129 30.1828 21.5624 30.1828 21.8185V27.9713L13.8748 37.408V62.7229L35.7545 75.3837L57.634 62.7229V37.408L41.1714 27.8818V21.8186C41.1714 21.6632 41.1608 21.5109 41.1442 21.3605C41.9975 20.8749 42.83 20.3989 43.6278 19.938C44.4547 20.5694 45.4847 20.9466 46.5964 20.9466C49.2898 20.9466 51.5013 18.7362 51.5013 16.0438C51.5013 15.7485 51.4734 15.4594 51.4225 15.1777C52.3793 14.5471 53.3231 13.9033 54.267 13.2327C54.8952 13.5261 55.5929 13.6914 56.3271 13.6914C59.0205 13.6914 61.2367 11.481 61.2367 8.78856C61.2367 8.47651 61.2061 8.17128 61.1492 7.87442C61.9836 7.17063 62.8418 6.42888 63.7311 5.6419C65.5665 6.5456 67.8663 6.23941 69.3854 4.72112C70.6508 3.4562 71.0744 1.64975 70.6583 0.020752H67.4285C68.0642 0.793814 68.0196 1.90533 67.294 2.63031C66.5208 3.40337 65.3083 3.40369 64.5351 2.63031C63.8096 1.90517 63.765 0.793498 64.4006 0.020752H61.1706C60.8676 1.20692 61.0124 2.48671 61.601 3.58367C60.9491 4.15872 60.3157 4.70736 59.6969 5.23386C58.8148 4.39754 57.6269 3.88084 56.3272 3.88084C53.6337 3.88084 51.4176 6.0966 51.4176 8.78871C51.4176 9.65066 51.6451 10.4625 52.0422 11.1689C51.3706 11.6368 50.6974 12.0926 50.0175 12.5406C49.1314 11.6739 47.9226 11.1362 46.5967 11.1362C43.9029 11.1362 41.6867 13.352 41.6867 16.0441C41.6867 16.5448 41.7633 17.0286 41.9055 17.4849C41.2363 17.8716 40.522 18.2801 39.8096 18.6876C39.6469 18.5304 39.4754 18.3856 39.296 18.2581C38.2371 17.504 36.9669 17.1697 35.7021 17.1488C34.4369 17.1279 33.1468 17.4205 32.0677 18.1774C31.94 18.2668 31.8168 18.365 31.6979 18.47C31.007 18.0631 30.3113 17.6533 29.6494 17.2646C29.751 16.8739 29.8051 16.4649 29.8051 16.0442C29.8051 13.3518 27.5889 11.1364 24.8955 11.1364C23.6333 11.1364 22.4762 11.6227 21.6025 12.4165C20.8953 11.9676 20.1953 11.5166 19.5064 11.057C19.8651 10.3774 20.0697 9.60543 20.0697 8.78903C20.0697 6.09644 17.8582 3.881 15.1647 3.881C13.8578 3.881 12.6642 4.40355 11.7807 5.24778C11.0663 4.64252 10.3408 4.00895 9.59878 3.33932C10.0834 2.29945 10.1866 1.1204 9.90573 0.0212265H6.67529C7.31103 0.794131 7.26641 1.90564 6.5408 2.63079C5.76757 3.40369 4.5551 3.40385 3.78187 2.63079C3.05657 1.90549 3.01211 0.793814 3.6477 0.0212265H0.417574V0.02091ZM15.164 6.83645C16.2595 6.83645 17.1122 7.69365 17.1122 8.78856C17.1122 9.88346 16.2598 10.7358 15.1644 10.7358C14.0686 10.7358 13.2112 9.88331 13.2112 8.7884C13.2112 7.69349 14.0687 6.83629 15.1643 6.83629L15.164 6.83645ZM56.3268 6.83645C57.4223 6.83645 58.2799 7.69365 58.2799 8.78856C58.2799 9.88346 57.4223 10.7358 56.3266 10.7358C55.2311 10.7358 54.3735 9.88331 54.3735 8.7884C54.3735 7.69349 55.2311 6.83629 56.3268 6.83629V6.83645ZM24.895 14.0917C25.9902 14.0917 26.8479 14.9489 26.8479 16.0439C26.8479 17.1388 25.9904 17.9911 24.8948 17.9911C23.799 17.9911 22.9416 17.1387 22.9416 16.0438C22.9416 14.9489 23.7991 14.0917 24.8947 14.0917H24.895ZM46.5961 14.0917C47.6916 14.0917 48.5443 14.9489 48.5443 16.0439C48.5443 17.1388 47.6914 17.9911 46.5961 17.9911C45.5005 17.9911 44.643 17.1387 44.643 16.0438C44.643 14.9489 45.5005 14.0917 46.5962 14.0917H46.5961ZM35.6527 20.1036C36.3956 20.1159 37.1329 20.3465 37.5799 20.6651C38.027 20.9833 38.2144 21.2668 38.2144 21.8183V26.1708L35.7546 24.7474L33.1398 26.2601V21.8186C33.1398 21.1718 33.3389 20.8958 33.7653 20.5969C34.1918 20.298 34.9103 20.0916 35.6529 20.1038L35.6527 20.1036ZM34.3676 28.965V34.1411L22.6303 40.975L18.1118 38.3715L34.3676 28.965ZM37.3243 29.071L53.4884 38.424L48.9594 41.0339L37.3248 34.2601L37.3245 29.071H37.3243ZM35.744 36.7605L47.1766 43.4165L47.1763 56.7515L35.7442 63.4076L24.3116 56.7515L24.3121 43.4168L35.7443 36.7603L35.744 36.7605ZM35.8176 39.6595L26.8174 55.1824V55.2969L35.7674 60.5124L44.7172 55.2969V44.8452L35.8174 39.6593L35.8176 39.6595ZM16.8318 41.0456L21.3547 43.652V56.9413L16.8318 59.5477V41.0459V41.0456ZM54.6771 41.1512L54.6767 59.4415L50.1333 56.8236V43.7695L54.677 41.1512H54.6771ZM48.5925 59.3473L53.0883 61.9379L37.3245 71.0598V65.908L48.5925 59.3473ZM22.9968 59.4066L34.3673 66.027V71.166L18.5118 61.991L22.9966 59.4064L22.9968 59.4066Z" fill="#0E0C07" fill-opacity="0.19"/>
</svg>
