<svg width="63" height="75" viewBox="0 0 63 75" fill="none" xmlns="http://www.w3.org/2000/svg">
<path d="M22.5758 5.43178L18.7325 0.357056H27.5418L22.5758 5.43178ZM34.7477 0.357056L39.6241 5.33341L43.3391 0.357056H34.7479H34.7477ZM36.7141 6.38593L31.1456 0.701834L25.5682 6.39305H36.723L36.7141 6.38593ZM49.7028 6.38593L45.9828 1.50605L42.3432 6.39305H49.7117L49.7028 6.38593ZM16.1296 1.57216L12.5544 6.39668H19.7925L16.1296 1.57216ZM24.2382 9.20188L31.1456 28.1641L38.0584 9.20188H24.2328H24.2382ZM12.6617 9.20188L26.9625 24.8619L21.2423 9.20188H12.6617ZM49.6403 9.20188H41.0599L35.3518 24.8619L49.6403 9.20188ZM46.5621 16.8158L41.9643 21.8511C46.0367 23.8684 49.4649 26.9819 51.8629 30.8412C54.261 34.7005 55.5336 39.1523 55.5376 43.6954C55.5341 57.136 44.5938 68.0786 31.1456 68.0786C17.6974 68.0786 6.75711 57.1431 6.75711 43.7006C6.76108 39.1575 8.03374 34.7057 10.4318 30.8464C12.8299 26.9871 16.2581 23.8736 20.3306 21.8563L15.7328 16.821C10.999 19.534 7.06501 23.4473 4.32784 28.1658C1.59066 32.8843 0.147169 38.241 0.143066 43.6954C0.142908 60.7812 14.0504 74.69 31.1456 74.69C48.2407 74.69 62.1483 60.7883 62.1483 43.7006C62.1458 38.2443 60.7029 32.8852 57.9653 28.1647C55.2277 23.4443 51.2923 19.5295 46.5567 16.8158H46.5621Z" fill="#0E0C07" fill-opacity="0.19"/>
</svg>
