<svg width="77" height="76" viewBox="0 0 77 76" fill="none" xmlns="http://www.w3.org/2000/svg">
<path d="M7.59851 0.226318L0.760742 7.06178C1.01738 9.04505 1.96055 11.3152 3.82869 13.6891L14.2673 3.25515C11.8898 1.40774 9.58943 0.468296 7.59851 0.226318ZM12.8458 8.85605L9.4907 12.2097C10.4938 13.9605 11.9257 15.9711 13.6888 18.0559L17.6756 12.2137C15.9565 10.8338 14.3102 9.69427 12.8458 8.85605ZM38.5613 11.5392L41.6318 14.6086L15.3853 40.8437L12.3145 37.7747L17.8333 53.7887L26.39 51.8437L18.1762 43.6339L44.4229 17.3986L52.6359 25.608L54.582 17.055L38.5613 11.5392ZM19.9413 14.1384L15.7176 20.3278C16.1337 20.77 16.5617 21.2127 17.0031 21.654C17.2096 21.8604 17.4164 22.0639 17.6234 22.2649L23.6437 17.7597C23.2075 17.2947 22.7577 16.8293 22.2938 16.3653C21.5106 15.5824 20.7234 14.8399 19.9413 14.1384ZM25.6179 19.9748L19.8326 24.3035C21.363 25.6458 22.8653 26.8173 24.2692 27.7837L28.4251 23.6296C27.6229 22.4651 26.6831 21.2345 25.6179 19.9747V19.9748ZM41.6522 24.3481L38.0183 27.9805C46.6494 36.7154 52.8042 43.7791 56.6717 49.0028C58.7322 51.7857 60.149 54.0369 60.9722 55.8382C61.3836 56.7389 61.656 57.5226 61.7511 58.2982C61.8465 59.0736 61.7473 59.9972 61.0761 60.6745C60.4048 61.3514 59.4765 61.4584 58.7006 61.3661C57.9245 61.2736 57.1415 61.003 56.2418 60.5932C54.442 59.7736 52.1926 58.3603 49.4093 56.3016C44.1847 52.4373 37.1137 46.2801 28.3586 37.6362L24.9636 41.0297C37.362 51.3125 60.2724 70.6601 76.307 75.7299C70.5725 59.9286 51.6266 36.8158 41.6524 24.348L41.6522 24.3481ZM35.9272 30.0708L30.4491 35.5462C39.1327 44.1177 46.1274 50.1973 51.1681 53.926C53.8547 55.9132 56.0018 57.2365 57.4672 57.9039C58.0188 58.1551 58.4286 58.2819 58.742 58.3567C58.6667 58.0404 58.5373 57.6249 58.2822 57.0665C57.6107 55.5969 56.2839 53.4479 54.2947 50.7608C50.5629 45.7207 44.4854 38.7341 35.9271 30.071L35.9272 30.0708Z" fill="#0E0C07" fill-opacity="0.19"/>
</svg>
